<svg xmlns="http://www.w3.org/2000/svg" viewBox="0 0 8558 10514"><defs><style>.cls-1{fill:#d82d05;}.cls-2{fill:#f7dc86;}.cls-3{fill:#db770b;}.cls-4,.cls-5{fill:none;}.cls-4{stroke:#000;stroke-miterlimit:10;}.cls-6{font-size:600px;font-family:ReenieBeanie, Reenie Beanie;}</style></defs><title>sun-jumper3</title><g id="Layer_9_copy_6" data-name="Layer 9 copy 6"><rect class="cls-1" x="6.79" y="0.13" width="8554.25" height="10510.12"/></g><g id="Layer_3_copy_5" data-name="Layer 3 copy 5"><path class="cls-2" d="M2891.77,4754.55c4.64-1.44-535.44,9.68-718.53,0-45.06-2.38-87.72-2.6-105.14-2.6-14,0,6.05-296.87,23.77-401.49q13.46-79.48,33.22-157.72c9.94-39.35,16.26-99.23,37.88-133.35,30.6-48.28,1157.91-130.07,1214.77-125.13-46.54-4-1081.78,4.81-1126-11.76-48-18-23.48-43.73-7.14-85.72C2271,3769,2317,3704.49,2365.36,3646.25c72-86.65,304.61-84.6,427.91-97.89,151.74-16.36,283.26-21,434.59-41.21,74.92-10,344.68-33.72,696.85-48.7-333.44-18.73-890.68-12.66-1206.11-14.59-64-.39-97.68-.39-208.65-17.65,16.22-52.27,84.91-106.77,125.53-148.78,381.62-394.7,915.28-621.13,1464.3-621.13,221.63,0,443,35.9,653,106.93a2025.81,2025.81,0,0,1,292.5,125.36c27.44,14.41,95.09,33.38,109,63.55,38.53,83.64-614.4,118.63-695,136.55,249.28,6.74,369.46-10.69,562.44-1.61,94.59,4.45,146.78,11.25,241.26,11.25,92.23,0,98.71,5.23,124.65,13.87S5573.1,3289,5573.1,3289s-128.86,12.76-156.7,14.81c-138.58,10.17-328.94,31.63-443.47,38.36-183.22,10.78-431.15,54.08-574.35,49.66,365.37,14.31,860.3-9.31,1204.66,35.87,79.82,10.47,84.39-19.74,172.79,107.72,124.66,179.74,63.78,98.57,153.65,263.81,27.14,49.91,113.06,240.62,107.26,263.81-5.15,20.62-118.86,20.29-190.38,31.65-179.79,28.54-352.3,50-590.45,97.64,229.49,8.66,477.9,8,701.56,15.71,71.62,2.47,108.13,2.6,117,8.65S6118.58,4409,6121,4442.84c7.14,99.2,15.39,150.63,15.39,250.06,0,40.16-.7,183.78-.7,183.78s-87.9,10.68-113.86,18.22c-25.37,7.37-238.34,30.24-361.84,46.83a2144.81,2144.81,0,0,1,351.9,43.54c23,4.81,105.79,11.42,105.79,11.42s-22,104.09-26.91,126.91A2022.64,2022.64,0,0,1,5871,5698.82,2050.74,2050.74,0,0,1,5343.19,6306c-354.62,273.74-795.48,423.49-1243.39,423.49-398.82,0-793.27-118.27-1125.54-339a2051.88,2051.88,0,0,1-582.53-588c-15.73-24.16-62.5-100.29-103.16-182.13-54.79-110.27-104.06-229.19-104.06-229.19s244.54-43.84,263.44-47.42c370.13-70,503.19-67.51,849.59-155.71-240.34-3.2-399.49,14.18-672.65,16.25-158.73,1.2-276.23,1.14-395.58-2.12-38-1-88.11,3.06-99.61,0-6.61-1.76-32.07-123.4-37-153.94s-12.79-98.91-12.79-98.91l51.16-7.14S2808.95,4808,3149.88,4754.55"/><path class="cls-3" d="M2967.29,4725.83h-4.9"/></g><g id="Layer_2" data-name="Layer 2"><path d="M4480.36,4658.28a3835.12,3835.12,0,0,0,585.08-556.1c26.17-30.74,48.07-64,74-94.4,28.64-33.62,56.48-68.15,79.45-106,21.67-35.66,39-74.49,47.52-115.49a398.46,398.46,0,0,0,8-82.92c-.1-21.58-4.78-47-.34-68.14,1.3-6.2,4.66-12.27,10.18-15.37a3.12,3.12,0,0,1,2.25-.53,3.28,3.28,0,0,1,1.81,1.86c4.78,9.1,2.31,15.83,2.43,25.09s3.36,19.46,4.37,28.91c.47,4.4,1,9,3.4,12.7.6.93,1.54,1.89,2.64,1.7s1.71-1.55,2-2.69c3.2-11.29,4.57-22.33,7.28-33.71,2.78-11.67,2.64-23.54,5-35.44l8.83-44.82c1.51-7.67,3.13-15.59,7.64-22,3.18-4.5,11.48-12,17.1-7a15.11,15.11,0,0,1,3.69,6.22c6.21,16.49-1.4,37.29-3.39,54.36-1.06,9.09-2.42,18.15-3.23,27.27-.36,4.06-4.86,22.83,4.28,20.2,5-1.42,13.05-23.92,15.43-28.74a384.86,384.86,0,0,0,22.84-56.84c5.29-17.32,10.54-34.73,18.1-51.22a20.66,20.66,0,0,1,5.08-7.34,9.58,9.58,0,0,1,8.34-2.31c4.14,1.06,6.53,5.39,7.78,9.48,10.06,33-9.89,70-20.56,100.59-4,11.52-6.4,24-10.89,35.32-1.35,3.38-6.42,10.85-4.92,14.56,2.07,5.13,23.73-29.55,26.09-33.94,9.76-18.18,14.06-38.27,21.07-57.64,7.88-21.76,15.06-43.81,20.33-66.36.74-3.18,1.48-6.45,3.34-9.13s5.13-4.66,8.32-4a10,10,0,0,1,5.39,3.8c8.89,10.87,7.79,28.79,3.37,41.34-5.37,15.26-7.16,30.69-9.73,46.87-4,25.38-11.58,50-19.17,74.48-6.87,22.15-16.59,41.93-24.35,63.64-6.51,18.2-7,39.9-6.79,59.11.06,5.51.24,11.1,1.89,16.36,3,9.63,10.71,17.24,19.46,22.26,8.25,4.73,17.72,10.37,27.12,12.37,11.48,2.44,23.37-1.67,34.54-3.89,31.85-6.34,65-.66,95.93,9.28,5.16,1.66,11.18,4.52,11.65,9.93,1,11.67-14.39,17.72-23.59,19.61-31.84,6.53-65.17,5.8-96.8,12.7a210.43,210.43,0,0,0-54.64,20c-15.45,8.29-32.43,16.64-45.54,28.21-42.44,37.46-83,78.09-122.86,118.27-25.06,25.29-52.83,51.9-74.59,79.59-41.61,52-72.16,114-111,168.4-18.14,25.36-36.84,50.31-55.55,75.26l-168.88,225.21c-21.27,28.36-42.67,56.87-68.32,81.34-31.71,30.24-69.6,54-98,87.41-18.09,21.3-53.18,85.09-7.74,95.18,29,6.43,69.45-6.59,97.19-15.34,123.65-39,245.39-81.39,366.58-126.92,52.3-19.65,105.24-37.55,158.42-54.66,44.55-14.34,91.73-20.82,137.33-32.89,92-24.34,184.24-57.19,259-117.86,13.61-11,28.68-29.39,46.93-31.54,4.23-.5,9.07,0,11.8,3.27,8,9.53-20,24.67-24.77,29.69-8.3,8.67-16.93,17-25.49,25.43-3.88,3.82-18.14,13.79-18.53,19.6-.69,10.19,12.62,6.35,18.45,5.09a432.92,432.92,0,0,0,56.55-16.47c23.31-8.46,42.87-19.81,68-21.12,6-.31,12-.37,17.76,1.36,5.28,1.6,10.75,6.2,9.53,11.58-.78,3.43-4,5.67-7,7.53-28.67,17.81-63.33,29.81-95.68,39.24-10.84,3.16-21.82,6-32.33,10.16a138.06,138.06,0,0,0-15,7.32c-4.11,2.23-9.49,2.92-10.26,8.59,1.52,1,3.54.51,5.28,0,24-7.57,48.52-13.58,72.5-20.93,15-4.6,29.69-10.15,44.83-14.25,8.62-2.34,43.06-16.78,46.94-2.47,1,3.55-.45,7.41-2.79,10.25s-5.52,4.85-8.65,6.78c-26.44,16.31-53.46,25.32-82.23,36.1-19.27,8.06-40.31,13.56-58.55,23.15-3.34,1.76-7.11,4.34-7,8.11,11.17,1.34,20.87-5.05,30.85-9.28l64.1-27.19c9.11-3.86,18.66-8,28.63-9,14.18-1.4,7,15.4-.41,19.08-39,19.49-78.07,38.66-117.57,57.18-12.88,6-25.9,12.13-37.56,20.37-7.79,5.5-28.19,21.87-10.48,29.4,4,1.69,8.44,1.64,12.75,1.39,13-.75,26-3.09,39-2.13s26.51,5.86,34,16.52a8,8,0,0,1,1.83,4.7c-.11,3.27-3.47,5.35-6.47,6.62-20.41,8.67-47,10.83-68.85,11.69-31.81,1.24-66.48,1.71-98-1.39-24.29-2.39-48.64-4.64-73.06-4.93-11.27-.13-22.73,1.16-33.91-.44-8.05-1.15-14.56-2.57-22.82-1.4-48.49,6.86-96,28.71-140.89,47.15l-101.25,41.55c-32,13.14-64.69,21.66-97.3,33.37q-54.64,19.61-108,42.6c-51.85,22.35-105.54,44.18-149.51,79.66,11.89-9.59,80.09,52.54,91.42,61.71,37.43,30.3,65.43,70.31,100.86,102.71,70.32,64.31,132.6,139.43,188.58,216.77,118.15,163.22,216.06,328.19,207.67,519.23-2.92,66.59-1.81,133.73-45.29,185.86-45.12,54.1-103.57,90.21-172.14,106.58-82,19.58-165.13,11.5-248.32,10.24-61.56-.94-123.18-.48-184.67-4-15.51-.89-119.16-28.38-118.84-3.84.08,6,4.77,10.73,9.14,14.8,24.09,22.43,46.77,42.2,74,60.23a607.19,607.19,0,0,1,159.93,155c52.36,74,115.19,100.49,191.49,145,50.2,29.29,141.69,82.83,98.32,153-14.31,23.13-36.19,40.33-56.77,58.11-29.38,25.4-57.48,53.69-74.13,88.77-21.95,46.24-21.94,99.46-21.51,150.64.22,26.38,4,47.67-2.71,73.47-9.65,37-19.61,88.75-63.53,98.45-54.09,12-61.4-63.44-66-101.8a1748.51,1748.51,0,0,1-10.74-285.64c4-90.91-63.11-148.26-123.84-204.06-31.43-28.88-71.67-43.43-108-66.42-42.22-26.73-81.83-57.32-121.48-87.66-71.44-54.67-147.65-116.41-213.5-177.73-77.89-72.52-163.47-181.74-161.61-137.21,1.26,30-12.84,87.22-24,109.7l0,0-218.4,441.31c-33.2,67.08-59,139.8-16.34,207.83,31.69,50.49,70.58,138-30.39,138.6-29,.16-56.92-10.68-85.8-13-69.79-5.58-134.17,39.11-180.68,91.43s-82.2,114.21-133.58,161.78c-8.92,8.26-19.25,16.45-31.4,17-18.76.83-33.75-17.92-35.56-36.61s6-36.84,14.08-53.79c31.73-66.59,80.73-120.43,117.28-183.59,27.12-46.86,40.75-97,69.86-143.32,74.77-118.94,138-239.37,177.33-375.07,29.33-101.3,46-205.59,71-307.93,21.8-89.27,60.6-170.67,63.57-263.28,3.6-112.19-12.58-252.33,148.93-277.86,137.45-21.73,239.17-30.32,358-34.18,60.66-2,307.8,33.7,336.48-8.91-111.93-62.13-248.31-50.87-342.46-143.7-43.54-42.93-69.52-107.51-100.3-159.45C4306,5253,4262.71,5173,4189.24,5150.43c-30.11-9.25-65.26-5.77-89.56,14.28-13.5,11.13-22.81,26.38-32.46,41s-20.33,29.23-35.41,38.1c-19.86,11.68-49.12,5.68-70.37.35-14.1-3.54-24.14-12-36.63-18.54-5.81-3-8.95-5.78-14.68-7.66-5.55-1.82-11.22,2.42-16.51-1-5.9-3.86-4.4-8.61-12.07-10.73-5.75-1.59-12.5-1.77-16.71-6.61-5.43-6.24-6.38-14.18-17.12-12.64-15.42,2.21-25.06,24.92-40.87,23a7.23,7.23,0,0,1-3-.92c-6.74-4.22-5-13.53-5.91-20.14-2.09-15-6.41-28.77-9.83-43.45-3.13-13.46-10.51-26.58-18.32-37.83-15.93-22.95-37.83-41.54-59.43-58.53-50.89-40-73.45-82.43-67.54-145.49,8.22-87.74,37.11-155.86,101.17-218.49,52.49-51.32,98-64.6,170.28-68.16,126.48-6.23,244.6,65.94,293.59,183.27,22.19,53.14,54.47,118.93,110.13,56l0,0C4375.9,4790.69,4409,4713,4480.36,4658.28Z"/><path class="cls-4" d="M5707,4764.92v-1.76"/></g><g id="Layer_8" data-name="Layer 8"><path d="M4377.39,6310.17c105,105.76,357.25,303.77,362.39,305.28,13.08,3.85,15.33-7.38,20.44-20s7.39-27.28,17.4-36.53c46.11-42.71,84.61-94.26,127.18-140.12,6.31-6.8,13.12-15.59,10.23-24.41-2-6-7.86-9.72-13.32-12.93C4761.14,6298.79,4665,6141.59,4519.78,6071c-55.24-26.86-282-145-328.84-43.88-12,26-5.65,57.34,8.56,82.19,28.94,50.61,83.07,94,120.79,138.77C4338.33,6269.47,4357.46,6290.11,4377.39,6310.17Z"/><path d="M3755.51,6664.42c63.56,13.69,134.16,28.51,196.18,42a30.67,30.67,0,0,0,36.7-24.46,1404.39,1404.39,0,0,1,114.33-354.5c39.67-83.14,88.8-168,94.21-258.2a30.62,30.62,0,0,0-35.43-32,596.84,596.84,0,0,1-86.26,7.45c-28.85.4-90-18.41-114.56-9.07-41.85,15.93-50.55,146.83-63,191-9.22,32.74-123.5,306.62-178.35,402.33C3709,6647,3735.2,6660,3755.51,6664.42Z"/><path d="M4742.92,4715.42c-23.12,15.62-65.86,2.43-72.46-24.68-10.66-43.74-25.9-101.49-26.59-110.41-4.23-55.22,52.34-107.26,82.77-148.26,41.81-56.33,83.24-130.09,137.49-174.89,16.14-13.3,19.65,4,34,19.22,24.42,25.87,69.73,76.27,99,106.43,17.22,17.71,33.78,25.31,13.39,39.26C4905.82,4493.71,4847.09,4645,4742.92,4715.42Z"/><path class="cls-5" d="M7226.62,5262H7216"/><path d="M5161.7,4685.31c13.78-4.95,16.31,34.51,19.45,46.68,12.35,47.84,5.83,72,18.5,125.6,2.4,10.18,8.51,28.59.95,35.82-3.18,3-13.26.46-28.11,4.17-64.2,16.05-176.1,52.23-288.72,82.43-55.6,14.91-87.79-6.53-111-38-14.35-19.42-19.08-44-32.19-64.15-7.45-11.45-21.66-11.43-8.65-15.59,67.18-21.47,214.81-70.34,276.17-105C5097.52,4706.71,5085.85,4712.54,5161.7,4685.31Z"/><path d="M4261.19,5253.51a6.89,6.89,0,0,1,.47-5.14,12,12,0,0,1,3.35-3.43c20.34-15.89,29-32.57,38.91-56.49,11.24-27.21,6-56.32,27-77.29,7.2-7.18,17-14.09,26.77-11.13,7,21.54,6.75,44.65,6.36,67.28-.48,28.12,5.87,52.29,10.07,79.26,5.79,37.13-11.49,80.44-3.18,116.21-5.27-22.68-26.36-36.46-40.93-53.07a211.16,211.16,0,0,0-58.86-46.8c-2.86-1.53-5.83-3.06-7.94-5.52A10,10,0,0,1,4261.19,5253.51Z"/><path d="M3392.36,7205.64q-1.26,2.24-2.49,4.49c-11.35,20.78-22,42.5-25.21,66-8.07,59.21,30.51,102.28,86,66.07,20.59-13.44,36.47-32.79,53-51,115.73-129.34,264.41-179.58,418.81-244,4.84-2,9.92-4.23,13-8.45,3.82-5.18,3.82-12.14,3.65-18.58l-4.45-174.85c-1.11-43.73-97.36-12.72-128.1-11.37-56.79,2.5-114.25,1.52-169.72-12.26-4.47-1.11-9.2-2.28-13.59-.89-6.84,2.16-10.33,9.57-12.92,16.26-8.43,21.82-15.61,44.11-23.86,66C3541.57,7022.16,3452.5,7098.37,3392.36,7205.64Z"/><path d="M5010.49,6574.27a373.32,373.32,0,0,0,29.88-34.44c3.8-5,7-10.59,11.73-14.82s11.36-7,17.36-5c6.42,2.11,10,8.68,14.18,14,24.85,31.89,75.86,35,105.49,62.23,6.72,6.18,34.92,30.76,34.92,38.18,57.29,72.25,3.86,87.66-36.79,139.28-46.38,58.91-75.8,141.46-95.8,212.79-16.45,58.67-16.43,243.13-107.61,249.59-102.16,0-72.56-167.44-67.53-225.11,7.68-88.12.85-177.14-45.89-253.71-3.34-5.46-6.91-11.12-7.47-17.5-1.15-13.12,43.29-50.46,54.49-63.15C4948.1,6641.84,4978.09,6607.81,5010.49,6574.27Z"/><path d="M5482.54,5281l6.3-.93c74-11.07,141.41-37.63,213.27-56.82,2.37-.63,5.34-1,6.81,1.13a6.53,6.53,0,0,1,.79,3.89c-.51,12.67-12,20.45-20.58,28.73-13.3,12.82-20.55,30.57-33.88,43.7-18.7,18.42-36.89,37-50.8,60.37-17,31-4.76,70.56-2.2,106.81a189.52,189.52,0,0,1-30.43,115.93c-9.89,15-23.44,32.43-38.55,41-19.81,11.26-41.85,21.76-40.3,51.66.68,13.11,6.55,25.13,9.15,37.94a25.48,25.48,0,0,1,.51,9.44c-.7,3.92-2.89,7.3-5.35,10.2-9.67,11.39-23.53,16.8-36.84,21.81-17.81,6.71-47,25.76-66.06,21.62-26.2-5.68-26.56-46.41-27.72-76.26-2.27-58.61-34.09-111.14-64.59-158.87-28.76-45-71.72-57-117.2-81.7-95.67-52-140.81-162.41-178.87-264.41-3.89-10.43.62-48.6,9.79-42.29,42.8,29.41,65.92,70.83,114,93.64,51.91,24.64,103.69,40.38,161.34,44.71C5355,5297.11,5419.13,5290.3,5482.54,5281Z"/></g><g id="Layer_6_copy_2" data-name="Layer 6 copy 2"><path d="M4179.9,4751.85a31.11,31.11,0,0,0,6.28,5.4,30.71,30.71,0,0,0,14.6,5c18.1,1,38-.25,55-8,18-8.19,26.39-28.74,42.84-39.29-2,17.85-16.42,32.88-29.89,43.21-14.81,11.36-33,18.07-50.39,23.12-9.07,2.63-19,5-27.75,8.78-36.5,15.67-.9,81.57-48.52,85.22-32.76,2.51-61.89-21.71-92.09-29.74-51-13.56-101.35,17.64-150.91,23.22-28,3.15-58.12,1.44-85.44,5.58-50.05,7.57-75.07,81-123.21,98.07-15.75,5.57-59.67-27.68-66.66-10.67-3.53,8.59-6.94,18.29-8.5,27.57s.08,21.39,4.56,29.55c3.21,5.84,8.07,11,12.66,16-12.45-11.52-28.84-25.27-32.09-42.94-6.21-33.76-2.77-78.31-32.47-102.29-8.07-6.51-17.71-12.24-24.46-19.34-22.22-23.37-17.58-51.58-4.82-81.34-8.9,23.45,2.53,44.94,16.93,61.78,16.39,19.18,18.12-22.94,13.56-30.49s-15.34-15.52-19-24.94c-4-10.18-.86-22,2.26-31.7,8.88-27.57,21.73-56.55,34.45-84.13-10.27,20.33-30.36,71.59-12.6,89.94,12.59,13,43.9,3.22,46.82-15.89.77-5-1.55-8-3.49-11.07a26,26,0,0,1-4.12-19.31c2.06-11.62,7.64-22.86,13.15-33.43l0,.07c-3.38,10.18-13,62.64,13.3,51.26,7.47-3.23,14.46-11.26,20.25-18.44,25.45-31.58,54.36-61.23,88.14-83.61a374.61,374.61,0,0,1,55.73-30.34,281.77,281.77,0,0,1,28.66-10.73c6.93-2.19,14.69-1.87,19.63-9a4.4,4.4,0,0,0,.9-2,2.84,2.84,0,0,0-.69-1.83c-25.41-36.7-46.49-75.48-61.54-117.38-11.77-32.75-16.65-67.8-4.29-99.73,9.68-25,33.18-45,57.52-56.31,24-11.21,50.54-17.69,75.9-25.94,54.28-17.64,105.17-53.82,125.38-109.79-2.48,24.18-19.16,43.44-35.44,60-28.1,28.59-56.8,56.91-86.13,84.38-24.51,23-51.58,47.19-63.72,77.79-19.17,48.35,13.81,89.57,33.39,134.16a349.69,349.69,0,0,0,6.29-40.06c5.66-62,9.87-141.81,77.45-168.54,39.81-15.74,83.4-23.34,117.25-50.12,28.94-22.89,41.64-62,63.63-91.45,25.91-34.73,46.08-80.24,86.26-101.14-42,20.93-26.57,77.53-43.9,113.08-23.93,49.11-78.28,73.32-112.24,114.24,37.64-21.73,70-52.39,97.21-85.94,38.26-47.23,74.68-99.94,125.63-133.65,40.52-26.8,86.31-44.86,134.52-37.52,29.6,4.5,58.09,14.1,89.12,9.64-33.67,3.79-67.92,7.17-99.14,18.17-32.88,11.58-64,30.64-94.2,49.71a243.52,243.52,0,0,0-69.28,66.45c-17.94,25.8-34.31,54.13-55.42,76.65-28.58,30.48-66.2,52.68-102.58,75-30.15,18.54-72,49.92-65.54,90.7,8.74-45.17,48-74.62,82.71-100.14,57.31-42.12,113.78-89.54,178.84-116.12,63.47-25.93,137.25-24.74,204.75-23.94,23.82.28,49.66,6.82,72.46,3.09,23.6-3.86,47.3-14.94,69.53-26.58,58.27-30.53,85-96.16,118.74-149.67-54.29,44.1-125.79,79.56-147,151.6-9.5,32.18-17.15,89.13-62.7,83.86-60.16-7-118,9.11-175.94,25.09-18.45,5.09-39.51,11.68-54.84,20.24-19.68,11,6.28,21.73,14.79,23.6,36.39,8,77.37-8,106.23-29.84,26.08-19.72,41.06-49.36,44.45-81.55,3.32-31.61,1-64.36,10.67-94.6,11.17-35,46.82-54.6,81.63-61.39-68.89,56.72-70.91,150.8-96.36,228-7.17,21.75-10.49,45.07-14.92,67.86-6.19,31.83-22.87,61.7-43.79,86.12-28.15,32.86-64.58,57.79-104.25,75,13.38-5.56,28-7.5,41.74-11.08,17.11-4.46,34.11-11.32,50.5-18.59,36.55-16.22,72.39-34.6,101.3-61,11.76-10.76,22.71-23.3,33.52-35.53,22.13-25,45.77-49.64,62.82-77.63,7.23-11.88,11.5-26.1,18.08-38.53,8.22-15.53,17-31.16,25.67-46.68-37,95.31-45.77,229.44-154.94,270.47-31.33,11.78-66.25,19.6-93.94,37.14-33.89,21.47-59.1,59.44-90.66,84.31-36.69,28.9-84.3,41.93-130.59,40-41.91-1.78-80.72-22.81-121.16-35.17-18.39-5.62-3.91,9.53,2.19,13.28,32.24,19.82,51,59.67,93.83,58.43,36.26-1,70.1-3.11,103.89,12.27a280.18,280.18,0,0,0-69.49,3.26c-11.55,2-28.72,3.82-33.27,15.16s5.45,25,16.89,29c32.83,11.46,75.11-17.58,100-36.85,14.91-11.52,29.35-24.23,44.61-35.41,17.08-12.52,39.21-18.48,60.14-20.25-29.24,6.4-58.66,18.15-79.16,40.34-11.55,12.51-19.82,28.24-31,40.85-25.78,29-66.27,41.44-99.78,60.21"/><text class="cls-6" transform="translate(6313.78 5634.18) rotate(-65.83)">@</text><text class="cls-6" transform="translate(6455.29 5302.36) rotate(-74.9)">e</text><text class="cls-6" transform="translate(6514.32 5066.77) rotate(-82.2)">l</text><text class="cls-6" transform="matrix(0, -1, 1, 0, 6535.2, 4906.87)">o</text><text class="cls-6" transform="translate(6533.8 4709.01) rotate(-96.27)">o</text><text class="cls-6" transform="translate(6512.04 4515.62) rotate(-102.08)">n</text><text class="cls-6" transform="matrix(-0.31, -0.95, 0.95, -0.31, 6460.66, 4282.71)">e</text></g></svg>